<svg xmlns="http://www.w3.org/2000/svg" version="1.0" width="500.000000pt" height="500.000000pt" viewBox="0 0 500.000000 500.000000" preserveAspectRatio="xMidYMid meet">
<metadata>
Created by potrace 1.16, written by Peter Selinger 2001-2019
</metadata>
<g transform="translate(0.000000,500.000000) scale(0.100000,-0.100000)" fill="#4f46e5" stroke="none">
<path d="M915 4135 c-41 -18 -100 -83 -114 -124 -16 -50 -16 -2981 1 -3030 16 -48 89 -117 136 -130 52 -15 3072 -15 3125 0 48 13 96 55 125 109 l22 42 0 1493 c0 1129 -3 1501 -12 1522 -17 41 -78 102 -117 119 -48 20 -3120 20 -3166 -1z m1820 -660 c39 -15 95 -36 125 -47 30 -11 64 -24 75 -28 11 -4 47 -18 80 -30 33 -12 69 -26 80 -30 11 -4 47 -18 80 -30 33 -12 69 -26 80 -30 22 -9 74 -28 247 -92 65 -24 118 -45 118 -48 0 -3 -42 -20 -93 -39 -50 -18 -144 -54 -207 -78 -63 -24 -160 -62 -215 -83 -55 -21 -140 -54 -190 -73 -49 -19 -135 -51 -190 -72 -55 -20 -124 -46 -153 -57 l-53 -21 -87 33 c-48 18 -134 50 -192 72 -58 22 -139 52 -180 68 -353 133 -635 243 -643 250 -4 3 44 25 105 49 62 24 183 70 268 103 85 33 189 72 230 88 41 16 154 59 250 96 96 37 189 70 205 74 31 7 108 -16 260 -75z m-1380 -461 c39 -14 106 -39 150 -56 44 -17 123 -45 175 -64 53 -18 103 -43 112 -55 17 -20 17 -59 12 -603 -4 -319 -8 -582 -9 -584 -1 -1 -24 7 -51 17 -27 11 -132 52 -234 91 -102 40 -195 79 -207 86 l-23 14 0 590 c0 325 1 590 3 590 1 0 34 -12 72 -26z m2363 -576 l-3 -592 -350 -139 c-192 -77 -431 -172 -530 -213 -211 -85 -234 -92 -246 -73 -9 15 -12 1130 -3 1165 5 17 46 36 212 99 114 42 277 104 362 137 325 125 407 157 470 182 36 14 71 25 78 26 10 0 12 -121 10 -592z m-1547 267 c128 -47 243 -92 256 -100 l23 -15 0 -595 c0 -327 -3 -595 -6 -595 -10 0 -195 67 -349 126 -77 30 -148 64 -157 75 -17 20 -18 64 -18 605 0 378 3 584 10 584 5 0 114 -38 241 -85z"/>
<path d="M1549 2743 c-2 -16 -2 -207 -1 -425 l4 -397 54 -21 c30 -11 57 -20 59 -20 3 0 5 191 5 425 l0 426 -42 19 c-59 27 -75 25 -79 -7z"/>
<path d="M2067 2573 c-4 -3 -7 -195 -7 -425 l0 -419 53 -24 c28 -14 58 -25 65 -25 9 0 12 92 12 428 l0 429 -37 16 c-53 22 -78 28 -86 20z"/>
</g>
</svg> 